<svg xmlns="http://www.w3.org/2000/svg" viewBox="0 0 100 100" width="64" height="64"><line x1="55.43" y1="18.91" x2="78.59" y2="36.83" stroke="hsl(117, 99%, 53%)" stroke-width="2" stroke-linecap="round" /><line x1="78.59" y1="36.83" x2="72.70" y2="66.37" stroke="hsl(117, 99%, 53%)" stroke-width="2" stroke-linecap="round" /><line x1="72.70" y1="66.37" x2="44.51" y2="68.90" stroke="hsl(117, 99%, 53%)" stroke-width="2" stroke-linecap="round" /><line x1="44.51" y1="68.90" x2="21.41" y2="46.96" stroke="hsl(117, 99%, 53%)" stroke-width="2" stroke-linecap="round" /><line x1="21.41" y1="46.96" x2="55.43" y2="18.91" stroke="hsl(117, 99%, 53%)" stroke-width="2" stroke-linecap="round" /><line x1="78.59" y1="36.83" x2="55.21" y2="81.09" stroke="hsl(117, 99%, 53%)" stroke-width="2" stroke-linecap="round" /><line x1="55.21" y1="81.09" x2="26.03" y2="67.04" stroke="hsl(117, 99%, 53%)" stroke-width="2" stroke-linecap="round" /><line x1="26.03" y1="67.04" x2="40.10" y2="35.45" stroke="hsl(117, 99%, 53%)" stroke-width="2" stroke-linecap="round" /><line x1="40.10" y1="35.45" x2="55.43" y2="18.91" stroke="hsl(117, 99%, 53%)" stroke-width="2" stroke-linecap="round" /><circle cx="55.43" cy="18.91" r="5.79" fill="hsl(117, 99%, 53%)" /><circle cx="78.59" cy="36.83" r="4.27" fill="hsl(117, 99%, 53%)" /><circle cx="72.70" cy="66.37" r="3.19" fill="hsl(117, 99%, 53%)" /><circle cx="44.51" cy="68.90" r="3.16" fill="hsl(117, 99%, 53%)" /><circle cx="21.41" cy="46.96" r="5.19" fill="hsl(117, 99%, 53%)" /><circle cx="55.21" cy="81.09" r="3.05" fill="hsl(117, 99%, 53%)" /><circle cx="26.03" cy="67.04" r="5.42" fill="hsl(117, 99%, 53%)" /><circle cx="40.10" cy="35.45" r="6.76" fill="hsl(117, 99%, 53%)" /></svg>